name processed_emg_signals
nRows=100
nColumns=7
 
endheader
time	RGLTMED	RRF	RADDLONG	RST	RTA	RGM
0.58	0.026575538815362	0.0064897309784387	0.0275715335481975	0.2112741362452351	0.4701882797906888	0.1571724827014186
0.581	0.0266888045440437	0.0082116402916016	0.027314906893018	0.2119514318510323	0.4649765717388019	0.158206647127399
0.582	0.026814174944474	0.009827483476216	0.0270653411051538	0.2125871081329681	0.459822934630814	0.1592371062054215
0.583	0.0269519725020477	0.0113385289040975	0.0268228497511843	0.213181656657556	0.4547317552867846	0.1602632191527497
0.584	0.0271025150839156	0.0127461059800763	0.026587448144119	0.2137355986035801	0.4497074329680526	0.1612843258346303
0.585	0.0272661154058025	0.0140516021553788	0.026359153319915	0.2142494830242141	0.4447543734081282	0.1622997473403577
0.586	0.0274430804962966	0.0152564599394911	0.0261379840078465	0.2147238850826041	0.4398769826320631	0.1633087866226828
0.587	0.0276337111593797	0.0163621739151108	0.0259239605949847	0.2151594042670305	0.435079660577205	0.1643107291995781
0.588	0.0278383014360087	0.0173702877607463	0.0257171050850103	0.2155566625920326	0.4303667945295061	0.1653048439172065
0.589	0.028057138065464	0.0182823912853494	0.0255174410515473	0.2159163027920721	0.425742752390808	0.1662903837729567
0.59	0.0282904999472422	0.0191001174793278	0.0253249935861843	0.2162389865146402	0.4212118757940264	0.1672665867976259
0.591	0.0285386576041836	0.019825139586084	0.0251397892412554	0.2165253925198052	0.4167784730850152	0.16823267699621
0.592	0.0288018726475617	0.0204591681981696	0.0249618559674294	0.216776214893113	0.4124468121918637	0.1691878653471042
0.593	0.0290803972447682	0.0210039483819835	0.0247912230460943	0.2169921612784165	0.4082211134041776	0.1701313508598115
0.594	0.029374473590226	0.0214612568347796	0.024627921016491	0.2171739511367053	0.4041055420862419	0.1710623216914704
0.595	0.0296843333800601	0.0218328990776559	0.024471981597576	0.2173223140363763	0.4001042013488026	0.1719799563225728
0.596	0.0300101972910572	0.0221207066879661	0.0243234376045592	0.2174379879797426	0.3962211247044686	0.1728834247922233
0.597	0.0303522744644535	0.0223265345744269	0.0241823228601593	0.2175217177698685	0.3924602687317547	0.1737718899932102
0.598	0.0307107619951996	0.0224522582979465	0.0240486721006058	0.2175742534211733	0.3888255057724064	0.1746445090268959
0.599	0.0310858444275711	0.0224997714409907	0.0239225208765177	0.2175963486166416	0.3853206166860204	0.1755004346176494
0.6	0.0314776932581993	0.0224709830280813	0.0238039054488202	0.2175887592139333	0.3819492836851279	0.1763388165860156
0.601	0.03188646644781	0.0223678149998586	0.023692862679897	0.217552241802302	0.3787150832729073	0.1771588033793278
0.602	0.0323123079430312	0.0221921997429643	0.0235894299202464	0.2174875523118824	0.375621479304835	0.1779595436578404
0.603	0.0327553472097474	0.0219460776778228	0.0234936448909048	0.2173954446765434	0.3726718161948423	0.1787401879338569
0.604	0.0332156987794726	0.0216313949062419	0.0234055455619398	0.2172766695511898	0.3698693122859143	0.1794998902606512
0.605	0.0336934618102737	0.0212501009206044	0.0233251700273451	0.2171319730841014	0.3672170534044676	0.1802378099673444
0.606	0.03418871966378	0.0208041463762718	0.0232525563766681	0.2169620957446601	0.3647179866171185	0.1809531134352395
0.607	0.0347015394998433	0.0202954809287294	0.0231877425637401	0.216767771206603	0.3623749142076076	0.1816449759105213
0.608	0.035231971890397	0.0197260511368159	0.0231307662728767	0.2165497252866836	0.3601904878906711	0.1823125833476602
0.609	0.0357800504540489	0.0190977984332769	0.0230816647829231	0.2163086749382455	0.3581672032785334	0.1829551342772907
0.61	0.036345791512867	0.0184126571637117	0.0230404748295302	0.2160453272987975	0.3563073946145242	0.183571841691829
0.611	0.0369291937727456	0.0176725526948118	0.0230072324660543	0.2157603787901835	0.354613229787122	0.1841619349415433
0.612	0.0375302380286252	0.0168793995926997	0.0229819729234448	0.2154545142696199	0.3530867056364072	0.1847246616332565
0.613	0.038148886895748	0.0160350998719867	0.0229647304695144	0.2151284062296022	0.3517296435637262	0.1852592895233465
0.614	0.0387850845680634	0.0151415413160904	0.0229555382679168	0.2147827140446122	0.350543685454195	0.185765108396206
0.615	0.0394387566048033	0.0142005958691427	0.0229544282372299	0.2144180832625376	0.3495302899206656	0.1862414319190848
0.616	0.0401098097462208	0.0132141180996845	0.0229614309105272	0.2140351449389498	0.3486907288768818	0.1866875994642201
0.617	0.0407981317594183	0.0121839437361669	0.0229765752958899	0.2136345150126935	0.3480260844467063	0.1871029778895307
0.618	0.0415035913151232	0.0111118882741325	0.0229998887383673	0.2132167937216965	0.3475372462154804	0.1874869632696952
0.619	0.0422260378962309	0.0099997456548253	0.023031396783867	0.2127825650583284	0.3472249088285809	0.1878389825700908
0.62	0.0429653017388118	0.0088492870148335	0.0230711230455239	0.2123323962640519	0.3470895699412309	0.1881584952567646
0.621	0.0437211938062327	0.0076622595062603	0.0231190890730177	0.2118668373635805	0.3471315285223544	0.1884449948360575
0.622	0.0444935057969275	0.0064403851867755	0.0231753142253197	0.2113864207391382	0.3473508835140899	0.1886980103180644
0.623	0.0452820101862662	0.0051853599788437	0.0232398155473094	0.2108916607457876	0.3477475328474476	0.1889171075986219
0.624	0.046086460302933	0.003898852697305	0.0233126076506527	0.2103830533690135	0.3483211728135394	0.1891018907553594
0.625	0.0469065904401051	0.0025825041444227	0.0233937025993327	0.2098610759256921	0.3490712977888947	0.1892520032542551
0.626	0.047742116001726	0.0012379262714589	0.0234831098001703	0.2093261868092956	0.3499972003125076	0.1893671290640433
0.627	0.0485927336840145	0.0001332985942147	0.0235808358986031	0.208778825279805	0.3510979715113556	0.1894469936767211
0.628	0.0494581216923028	0.001529618457497	0.0236868846799875	0.2082194112983859	0.3523725018701257	0.1894913650330709
0.629	0.0503379399931645	0.0029495123005042	0.0238012569765785	0.2076483454065745	0.3538194823398645	0.1895000543526431
0.63	0.0512318306017313	0.0043914906652204	0.0239239505803413	0.2070660086493287	0.355437405779085	0.1894729168678463
0.631	0.0521394179039586	0.0058540961750471	0.0240549601616413	0.2064727625410905	0.3572245687196698	0.1894098524620323
0.632	0.053060309013529	0.0073359039965345	0.0241942771938273	0.2058689490738288	0.3591790734486707	0.1893108062114781
0.633	0.0539940941629049	0.0088355222426746	0.0243418898836701	0.205254890766085	0.3612988303958313	0.1891757688310741
0.634	0.0549403471279537	0.0103515923191847	0.0244977831075203	0.2046308907521919	0.3635815608154193	0.1890047770232919
0.635	0.0558986256854262	0.0118827892153233	0.0246619383530625	0.2039972329110445	0.3660247997498527	0.1887979137298735
0.636	0.0568684721024694	0.0134278217408308	0.0248343336664858	0.2033541820338192	0.3686258992615855	0.1885553082857204
0.637	0.0578494136571776	0.0149854327106615	0.0250149436049159	0.2027019840300356	0.3713820319191646	0.18827713647485
0.638	0.0588409631890564	0.0165543990792487	0.0252037391939932	0.2020408661711809	0.3742901945229916	0.1879636204887365
0.639	0.0598426196780839	0.0181335320261029	0.0254006878905081	0.201371037371017	0.3773472120564473	0.1876150287879369
0.64	0.0608538688508652	0.0197216769945947	0.0256057535500383	0.2006926885014265	0.3805497418482977	0.1872316758682392
0.641	0.0618741838122276	0.0213177136858479	0.0258188963995135	0.2000059927423582	0.3838942779326116	0.1868139219327542
0.642	0.0629030257003913	0.022920556009733	0.0260400730146186	0.1993111059641658	0.3873771555925152	0.1863621724711387
0.643	0.0639398443637359	0.0245291519949776	0.0262692363018941	0.1986081671406274	0.3909945560739851	0.1858768777467416
0.644	0.0649840790570216	0.026142483660415	0.0265063354853803	0.1978972987911216	0.3947425114555798	0.185358532191982
0.645	0.0660351591548935	0.0277595668494101	0.0267513160976507	0.1971786074507851	0.3986169096599136	0.1848076737119854
0.646	0.0670925048804488	0.0293794510294887	0.0270041199750748	0.1964521841679205	0.4026134995929013	0.1842248828964356
0.647	0.0681555280466629	0.0310012190591745	0.0272646852572514	0.1957181050283832	0.406727896397463	0.183610782139877
0.648	0.0692236328084174	0.0326239869241155	0.0275329463906052	0.1949764317069179	0.4109555868093277	0.182966034671074
0.649	0.0702962164229319	0.0342469034445585	0.0278088341362473	0.1942272120455087	0.4152919346036799	0.1822913434926505
0.65	0.071372670016341	0.0358691499563179	0.0280922755823024	0.1934704806586875	0.4197321861224898	0.1815874502329302
0.651	0.0724523793541322	0.0374899399673764	0.0283831941609516	0.1927062595655844	0.4242714758731175	0.1808551339126746
0.652	0.0735347256130489	0.0391085187922428	0.0286815096704763	0.1919345588483409	0.4289048321891494	0.1800952096300398
0.653	0.074619086151956	0.0407241631661965	0.0289871383026266	0.1911553773362446	0.4336271829444661	0.1793085271676473
0.654	0.0757048352792003	0.0423361808414685	0.0292999926755896	0.1903687033146514	0.4384333613112091	0.1784959695261751
0.655	0.0767913450140673	0.0439439101673737	0.0296199818728478	0.1895745152574233	0.4433181115517178	0.1776584513894963
0.656	0.0778779858401843	0.0455467196562978	0.0299470114881627	0.1887727825812833	0.4482760948337941	0.1767969175269404
0.657	0.0789641274489865	0.0471440075373494	0.0302809836768436	0.1879634664201097	0.4533018950584989	0.1759123411386251
0.658	0.0800491394719214	0.0487352012993859	0.0306217972134473	0.187146520416925	0.4583900246905975	0.1750057221502053
0.659	0.0811323922005939	0.050319757224973	0.030969347555966	0.1863218915311706	0.4635349305839747	0.1740780854637409
0.66	0.0822132572946842	0.0518971599167264	0.0313235269165189	0.1854895208588679	0.468730999797277	0.1731304791716885
0.661	0.0832911084779636	0.0534669218173249	0.0316842243385395	0.1846493444632534	0.4739725653977459	0.172163972741198
0.662	0.084365322223071	0.0550285827244109	0.0320513257804273	0.1838012942135222	0.4792539122528858	0.1711796551757694
0.663	0.0854352784260471	0.0565817093015165	0.0324247142055841	0.1829452986293006	0.484569282810138	0.1701786331610591
0.664	0.0865003610717241	0.0581258945861337	0.0328042696787729	0.1820812837285187	0.4899128828645309	0.1691620292012635
0.665	0.0875599588911758	0.0596607574959925	0.033189869468672	0.1812091738761932	0.4952788873142211	0.1681309797520665
0.666	0.0886134660123398	0.0611859423345233	0.033581388156489	0.1803288926314757	0.5006614459040356	0.1670866333557525
0.667	0.0896602826048253	0.0627011182964222	0.0339786977504516	0.1794403635900837	0.5060546889575241	0.1660301487836831
0.668	0.0906998155196768	0.0642059789740465	0.0343816678059734	0.1785435112189611	0.5114527330987024	0.1649626931909833
0.669	0.0917314789246661	0.0657002418653026	0.0347901655512732	0.1776382616797176	0.5168496869660213	0.1638854402878585
0.67	0.0927546949354074	0.0671836478834783	0.0352040560181797	0.1767245436370724	0.5222396569236242	0.1627995685316
0.671	0.0937688942424129	0.0686559608693804	0.0356232021778673	0.1758022890482014	0.5276167527779739	0.1617062593429076
0.672	0.0947735167340501	0.0701169671059283	0.0360474650811873	0.1748714339287271	0.532975093510464	0.1606066953497591
0.673	0.0957680121152134	0.0715664748352773	0.0364767040032956	0.1739319190910303	0.5383088130378212	0.1595020586616944
0.674	0.0967518405213968	0.0730043137784105	0.0369107765922362	0.1729836908508163	0.543612066011926	0.1583935291770148
0.675	0.0977244731276794	0.074430334657135	0.0373495390212041	0.1720267016983497	0.5488790336697881	0.157282282924995
0.676	0.0986853927518723	0.0758444087184647	0.0377928461441671	0.1710609109315616	0.5541039297432613	0.1561694904448239
0.677	0.0996340944509458	0.0772464272615262	0.0382405516545785	0.1700862852489674	0.5592810064368531	0.155056315202497
0.678	0.100570086109607	0.078636301167236	0.0386925082468759	0.169102799301028	0.5644045604807507	0.1539439120464497
0.679	0.1014928890198785	0.0800139604312205	0.0391485677804077	0.1681104361989796	0.569468939264885	0.1528334257022369
